<svg xmlns="http://www.w3.org/2000/svg" viewBox="0 0 266.893 266.895" enable-background="new 0 0 266.893 266.895"><path fill="#3C5A9A" d="M252.163 0h-237.432c-8.138 0-14.731 6.594-14.731 14.731v237.434c0 8.135 6.593 14.73 14.731 14.73h127.826v-103.356h-34.781v-40.28h34.781v-29.705c0-34.473 21.054-53.244 51.806-53.244 14.73 0 27.391 1.097 31.081 1.587v36.026l-21.33.01c-16.724 0-19.962 7.947-19.962 19.609v25.717h39.887l-5.194 40.28h-34.693v103.355h68.012c8.134 0 14.73-6.596 14.73-14.73v-237.433c-.001-8.137-6.597-14.731-14.731-14.731z"/></svg>