<svg xmlns="http://www.w3.org/2000/svg" width="81.69" height="88.733"><path d="M35.34 64.049l.301.303c-1.06-.89-1.926-1.951-2.699-3.015.582 1.381 1.359 2.875 2.661 4.025.174.147.324.27.526.42.197.158.512.326.774.479.535.335 1.108.526 1.649.679 1.096.256 2.121.098 2.844-.428.112.278.461.454.953.544.497.103 1.078-.034 1.642-.253 1.127-.459 2.022-1.458 1.956-1.575l.397-.677.168-.323.1-.234.371-.89c-.193.414-.321.739-.597 1.259.275-.52.403-.845.597-1.259.757-1.824 1.585-3.49 2.545-5.163.957-1.668 2.016-3.324 3.077-5.018 1.179-1.884 3.888-7.196 5.067-9.126l.492-.851-.616.918c.297-1.366.545-2.609.854-3.78-.224.132-.373.107-.766.482l.337-.519c-.181-.685.345-1.852.411-2.479.161.211.391-.207.588-.578l-.206.092c.715-1.421 1.259-3.191 1.833-4.488.076-.183.213-.286.321-.338l.358-1.323c.245.215.684-.937.613-.264.053-1.08.653-1.948.671-2.989 1.272-3.223 2.431-6.73 3.266-10.247l-.139.039c.27-1.24.106-2.489.849-3.832.011-1.161.366-2.68-.08-3.314.368-1.199.246-1.781.526-2.985-.409.181.061-1.247-.385-.771-.702.596-.365.775-.947 1.289l.107.019c-1.599 2.832-3.025 5.732-4.364 8.708-.551 2.123-1.635 4.231-2.408 6.357-.808 2.299-1.618 4.813-2.178 6.843-.108.495-.492.724-.794 1.058-.61 1.826-1.664 4.031-2.363 6.085l.052-.093c-.408 1.077-1.053 1.733-1.454 2.781.085.031.021.193.03.289-.451.01-1.897 6.381-2.304 6.632l-.108.347c-1.175 2.064-2.978 3.891-3.823 5.701-.02.479-.092.991-.062 1.422-.324.23-.047.452-.29.807-1.258.551-1.25 1.262-.721.924-.325.833-.83 1.563-1.203 2.24l-.393 1.019c-.102.298-.301.372-.553.385-.32.702-.373.401-.888.976-.074-.025-.205.137-.237.227l-.06.34c-.039.265-.143.611-.212.597l.029-.082c-.18.121-.397.054-.57-.105-.178-.17-.291-.361-.412-.421l-.463-.374c-.372-.296-.845-.685-1.272-1.098-.877-.823-1.734-1.763-2.432-2.707-.256.178.381.355.081.64-.848-1.107-1.395-2.477-2.177-3.673-.081-.259-.135-.605-.119-.76-.164-.442-.275-.138-.432-.437l.206-.195c-.466-.276-.142-.768-.494-1.085-.107.042-.212-.091-.295-.232.245-.171-.294-.412-.053-.54l-.021.008c-.051-.085-.104-.134-.126-.264l-2.035-1.265-.005-.102c-.149-.222-.396-.205-.36-.044l-.157-.29.037.021-.156-.289c-.009-.065.074-.195.234-.184-.186-.104-.34-.255-.39-.441.106.538.218 1.222.249 1.841-.205-.136-.282-.562-.434-.752.017-.349-.145-.943-.263-1.408-.066-.078-.387.03-.378-.242.141-.212-.138-.22-.091-.468.215.128.276.341.379.538.213-.171-.116-.559-.137-.749-.116-.027-.253-.441-.451-.637.283-.027.038-.27.081-.477-.062-.171-.208-.22-.252-.111-.277.087.207.707-.176.635.086-.125-.13-.41-.233-.569-.136.073-.039.17-.227.135-.074-.201-.344-.306-.26-.486.056.014.073.1.099.156-.122-.245 1.606.802 1.354.536-.076.152-1.567-.916-1.475-.74l-.269.201.254.075c.064.234-.124.452-.257.43-.175-.358 1.475.472 1.171.25l.005.157c-.159-.076-.426-.371-.357-.579-.133.074-.276-.07-.402-.183l-.005-.062c-.15-.112-.22-.316-.35-.132.49.837-1.672.18-1.288 1.056.099-.517.367-.048.61.302-.079.093-.133.34-.056.65.155.218.185.074.284.076.007.165.094.44-.078.497.287.073.05.355.239.533.196.14.071-.059.238.023.147.295.357.706.458.952-.091.172-.183.59-.52.529-.228-.448.458-.053.143-.472-.211.388-.327-.342-.622-.277-.063.231.11.521.295.74l.014-.075c.169.188.497.571.463.908-.147.015-.171.168-.294.028l.158.307c.059.015.119.03.093-.07.173.084.209.252.208.399-.104.111 1.474 1.229 1.371 1.226.137.204-.01.371.243.493.105-.034-1.677-1.728-1.462-1.48-.023.27 2.1 1.98 1.966 2.247.111.146.258.312.354.197.114.294-.279.075-.267.332l.084.007-.032.276c.454.272.614 1.021 1.147 1.262-.209-.03-.531-.008-.831-.197l.03-.089c-.062-.014-.255-.206-.369-.119.097.31.269.515.574.699l.008.213.042-.036c-.011.138-.029.138-.097.138h-.04c-.23.405.926.84 1.093 1.422l.256.089c.215.566.365.961.669 1.504.264.041.328.007.329-.295l.244.395c-.642-.025.197.964-.469.908.001.177.166.41.401.561.109-.059.284-.153.5.099l.303.725c-.054.174-.197.11-.279.207.555.311.104.624.536 1.025.279.234.836.73 1.036.541.348.35.23.497.036.63zM69.455 76.197l-.128.254c.088-.044.481-1.813.69-3.231.233-1.481.426-3.031.587-4.579-.353 1.668-.729 3.408-1.151 5.049l-.323 1.197-.171.552-.144.431c-.09.092-.15.167-.247.188l-.122.03-.016.006-.252.058-.53.116-2.247.478c-1.509.339-2.963.749-4.25 1.313-.616-.992-7.22-1.327-7.36-1.09-1.375.209-2.773.374-4.19.501.975-.074 1.944-.16 2.903-.268-.959.107-1.929.193-2.903.268-8.961.79-18.773.139-28.788-.89-1.383-.143-3.378-.324-5.604-.592l-.837-.106-.211-.027-.039-.01-.072-.02c-.091-.034-.194-.039-.26-.112-.052-.087-.064-.192-.077-.286l-.006-.07-.03-.192c-.053-.269-.097-.563-.142-.852-.348-2.36-.513-4.939-.615-7.201-.097-2.274-.121-4.278-.101-5.697l.017-2.474-.091 2.758c-.427-3.444-.76-6.593-.953-9.646-.151.539-.298.633-.497 1.914l.089-1.561c-.452-1.42-.412-4.705-.561-6.251.225.336.292-.879.358-1.948l-.164.419c.196-4.06.255-8.785.687-12.336.055-.495.186-.854.294-1.065 0 0 .059-.85.151-1.681.088-.833.213-1.633.213-1.633.125.153.332-.485.509-.917l.096-.185.06-.057c.029.003.057.018.047.224-.008-.322.016-.644.22-.896.135-.133.314-.208.492-.279l.306-.1.587-.149c.805-.194 1.657-.37 2.49-.603 4.309-.501 8.92-.698 13.543-.88 4.633-.171 9.319-.278 13.944-.364l-.222-.123c3.238-.079 6.129-.55 10.046-.061 2.836-.217 6.842-.012 8.045-.492 1.631.167 2.783.243 3.938.34 1.166.123 2.289.167 4.025.712-.195-.162-.076-.185.198-.135.274.053.715.189 1.223.487l.398.283c.155.145.296.298.415.443l.24.246c.111.088.127.019-.034-.344-.197-.332-.467-.646-.621-.78l-.269-.243-.216-.163c-.301-.226-.498-.323-.717-.449-.396-.201-.706-.318-.993-.413-.576-.188-1.091-.333-1.995-.718l.032.118c-4.314-1.156-8.508-1.713-12.759-2.214-4.241-.476-8.495-.794-12.781-1.002-5.73.096-11.927-.175-17.92.124-2.284.125-4.638.305-6.984.596-1.175.148-2.346.322-3.537.567l-.904.205-.494.129-.643.196c-.868.27-1.659.659-2.311 1.211-.566.569-.978 1.229-1.258 1.94-.126.362-.264.704-.364 1.073-.111.386-.144.55-.204.819-.211.975-.332 1.848-.432 2.686-.125 1.366-.504 2.29-.777 3.414-.403 5.149-.742 11.572-.601 17.28l.013-.279c.033 3.027-.275 5.299-.156 8.259.09-.017.107.442.161.664-.203.262.111 4.614.668 9.032.275 2.21.615 4.438.935 6.193l.652 3.411c.131.437.263.892.432 1.334.176.544.389 1.074.696 1.539.146.238.329.45.534.646.233.164.446.322.709.415.506.213 1.074.353 1.658.454l1.538.263c1.579.267 3.126.505 4.649.725 3.042.435 5.973.778 8.641.868 1.167-.145 2.478-.262 3.46-.448.935.22 1.129-.124 2.262-.034 2.852.953 4.556.64 3.075.297 2.375-.042 4.753.092 6.863.099l2.939-.157c.838-.062 1.305.067 1.726.272 2.148-.109 1.513.1 3.767.184.547.308 5.653-.526 6.293-.47l-.368.053c2.614-.021 4.379.487 6.988.324.907-.04 1.833-.107 2.782-.205.474-.049.956-.108 1.45-.184l.753-.125c.275-.051.443-.08.904-.189.783-.201 1.531-.422 2.199-.812.338-.184.624-.438.928-.676.219-.315.483-.601.663-.941.178-.342.396-.659.54-1.021l.37-1.121c.153-.423.162-.626.23-.89l.162-.762c.361-1.971.536-3.809.685-5.605.149-1.794.252-3.524.35-5.178-.304-.081 0 1.464-.418 1.52.266-3.896.711-7.801.768-11.721.083-.706.232-1.571.33-1.895.109-1.254-.155-.738-.125-1.654l.278-.128c-.245-1.337.278-1.965.137-3.226-.113-.065-.141-.524-.146-.974.297-.031-.061-1.381.213-1.324l-.022-.013c-.003-.271-.03-.462.009-.795-.107-.514-1.146-5.294-1.314-5.805l.034-.246c-.056-.721-.296-1.014-.322-.59l-.04-.889.026.102-.044-.885c.014-.165.138-.36.287-.118-.142-.495-.238-1.053-.227-1.561-.069 1.414-.208 3.16-.429 4.626-.13-.589-.049-1.676-.12-2.321.143-.785.19-2.39.208-3.649-.04-.272-.392-.429-.311-1.065.193-.33-.075-.699.021-1.242.198.587.194 1.173.248 1.779.255-.132.039-1.486.045-1.983-.107-.213-.171-1.407-.367-2.155.312.294.069-.638.111-1.136-.057-.522-.269-.892-.297-.634-.277-.075.225 2.122-.195 1.453.098-.215-.116-1.208-.286-1.805-.151.03-.022.419-.252.083-.045-.305-.195-.667-.326-.992-.092-.274-.308-.716-.38-1.023.064.08.143.225.216.387.081.171.142.339.162.427-.157-.489.56.77.994 1.788.441 1.016.809 1.987.687 1.484-.051.138-.427-.922-.909-2.045-.119-.278-.23-.546-.385-.851l-.203-.405-.095-.182-.137-.233c-.178-.292-.328-.502-.415-.614l-.058-.028c.173.397.035.293-.089.201-.125-.086-.239-.168-.069.205.004-.018.587.784.532.725.217.83.002 1.164-.158.945-.087-.313 0-.268.169-.035.148.213.377.612.585 1.014.396.782.745 1.594.591 1.124l-.015.399c-.151-.386-.434-1.461-.38-1.948-.164.012-.307-.508-.538-1.047l-.037-.201-.184-.427c-.098-.198-.195-.383-.281-.524-.174-.283-.283-.389-.243-.105.14.262.241.49.313.679.048.157.06.26.069.354.016.18-.021.265-.09.287-.139.044-.409-.154-.677-.329-.322-.234-.643-.403-.783-.329-.071.036-.101.127-.077.292l.177.725c-.052-1.221.507.283.747 1.407-.099.132-.152.665-.12 1.479.129.69.183.391.287.511-.012.398.007 1.141-.179 1.067.277.515-.024.878.111 1.517.157.561.088-.048.231.347.069.86.141 2.065.153 2.751-.146.278-.378 1.102-.68.538-.062-1.298.456.462.299-.883-.329.611-.208-1.184-.517-1.403-.136.445-.052 1.31.046 2.034l.039-.149c.101.636.272 1.914.11 2.622-.144-.155-.225.154-.287-.314l.031.883c.05.109.101.222.114-.034.131.41.093.831.032 1.155-.121.099.814 4.674.711 4.539.027.638-.176.799-.016 1.417.136.058-.721-6.076-.653-5.231-.102.543 1 7.194.718 7.604.021.472.062 1.042.203.929-.053.801-.278-.234-.4.337.023.013.071-.048.069.134l-.171.55c.243 1.237-.03 3.059.266 4.355-.155-.376-.431-.804-.575-1.637l.074-.146c-.044-.119-.098-.805-.242-.784-.088.793-.06 1.471.086 2.304l-.116.454.056-.013c-.089.273-.104.244-.159.145l-.032-.058c-.416.495.258 3.109.012 4.553.051.427.07.041.14.573-.193 1.474-.352 2.486-.507 4.021.16.498.23.54.443-.047l-.107 1.161c-.428-1.075-.566 2.143-.988.956-.13.331-.181 1.024-.151 1.67.116.073.304.187.247.998-.244 1.114-.172.849-.403 1.764-.175.205-.207-.141-.336-.113.055 1.432-.451 1.21-.595 2.507-.042.846-.324 2.348-.071 2.429-.127.567-.186.51-.281.565-.088.011-.181-.047-.281-.106z"/></svg>