<svg xmlns="http://www.w3.org/2000/svg" xmlns:xlink="http://www.w3.org/1999/xlink" width="278.022" height="358.112"><defs><rect id="a" width="278.022" height="358.112"/></defs><clipPath id="b"><use xlink:href="#a" overflow="visible"/></clipPath><path clip-path="url(#b)" d="M248.454 173.649l2.558-39.97 6.394 1.534 2.814 40.472-11.766-2.036zm17.654-49.732c-1.53-.092-3.442-.19-5.742-.286-2.296-.094-4.688-.146-7.174-.146h-13.922l-8.756 100.326h12.342c1.054-7.08 1.844-13.944 2.368-20.596.524-6.648 1.46-12.702 2.8-18.156l12.342 1.866c.576 1.916 1.102 4.5 1.58 7.748.478 3.256.932 6.654 1.364 10.192.43 3.542.86 7.01 1.292 10.406.43 3.398.79 6.244 1.074 8.54h12.346l-11.914-99.894z"/><path clip-path="url(#b)" d="M0 137.099v-7.222c0-1.508.022-2.95.072-4.318.046-1.37.116-2.384.212-3.046l49.418.85c.092 1.324.188 2.596.284 3.824.094 1.04.188 2.15.282 3.328.094 1.18.144 2.192.144 3.044v1.84h-20.818c0 14.822.284 29.5.85 44.038.568 14.538.85 28.842.85 42.904h-13.876l1.47-87.676-18.888 2.434z"/><path clip-path="url(#b)" d="M55.931 222.201c.188-16.238.4-32.522.638-48.852.234-16.332.638-33.136 1.202-50.41h14.304v99.262h-16.144z"/><path clip-path="url(#b)" d="M80.173 123.105c7.08-.376 14.49-.472 22.232-.284 7.738.19 12.58.284 19.66.284v10.618h-29.29c-.19 2.36-.212 5.708-.07 10.05.142 4.344.304 8.754.496 13.234.188 4.484.424 8.546.708 12.176.282 3.634.47 5.972.566 7.01h24.05v10.616l-24.05 3.54v1.696c0 2.74.212 5.994.636 9.768.426 3.778.684 7.034.78 9.77h26.174v10.618h-39.91l-1.982-99.096z"/><path clip-path="url(#b)" d="M31.473 331.811c1.426.064 2.984.124 4.672.186 1.688.064 3.46.124 5.324.186 1.858.064.344.138 2.162.218 4.242.166 8.74.374 13.498.624.738.246 1.386.62 1.948 1.118.478.456.91 1.078 1.298 1.864.39.788.564 1.784.522 2.984l-.262 9.79-42.274-.684.844-10.782c.304-1.078.844-2.03 1.622-2.862.65-.704 1.548-1.346 2.694-1.926 1.146-.58 2.628-.85 4.446-.81.91 0 2.078.034 3.506.094m-20.334-6.704c-1.864.986-3.324 2.078-4.38 3.272-1.266 1.41-2.144 3.026-2.636 4.854l-1.374 22.372 74.186 1.16.424-20.684c.068-2.038-.212-3.726-.846-5.064-.632-1.336-1.336-2.39-2.112-3.166-.912-.844-1.966-1.476-3.166-1.9-7.736-.42-15.052-.772-21.948-1.056-2.954-.14-5.946-.262-8.97-.366-3.024-.108-5.91-.212-8.654-.32-2.742-.104-5.274-.21-7.598-.316-2.32-.106-4.22-.158-5.698-.158-2.954-.068-5.364.388-7.228 1.372"/><path clip-path="url(#b)" d="M3.277 316.561c-.28-5.278-.352-10.798-.21-16.57.142-5.764.21-11.288.21-16.566h7.916v23.742c1.758.142 4.256.158 7.492.054s2.216-.228 5.556-.368c3.342-.14 5.382-.88 6.154-.95v-19.84h7.916l2.638 19.84h1.266c2.042 0 16.924-.158 19.738-.474 2.812-.32 5.24-.512 7.278-.582v-21.422h7.916v31.66l-73.87 1.476z"/><path clip-path="url(#b)" d="M77.147 278.044c-11.888.142-23.97.054-36.248-.266-12.276-.316-24.854-.648-37.726-1.002v-9.498l64.476 3.73v-31.844c.564-.07 1.232-.14 2.004-.21.776-.068 1.6-.122 2.48-.158.882-.036 1.76-.052 2.64-.052h2.374v39.3z"/><path clip-path="url(#b)" d="M91.964 357.069l-2.04-16.142 27.018 1.698c2.49-.226 4.758-.678 6.798-1.36 1.698-.564 3.284-1.498 4.756-2.804 1.472-1.298 2.32-3.084 2.55-5.35.224-2.266.308-4.306.254-6.118-.06-1.812-.086-3.34-.086-4.588-.114-1.47-.168-2.83-.168-4.078-.116-1.7-.454-3.23-1.02-4.59-.57-1.13-1.334-2.176-2.294-3.142-.964-.96-2.408-1.442-4.332-1.442-1.928 0-3.824-.03-5.694-.086-1.868-.056-3.542-.198-5.012-.426-1.814-.112-3.458-.28-4.928-.51-2.946-.68-5.496-1.868-7.646-3.568-1.928-1.47-3.682-3.54-5.268-6.202-1.588-2.66-2.268-6.2-2.038-10.62.11-4.418.196-8.608.254-12.572.056-3.964.026-7.48-.086-10.536-.112-3.624-.226-6.968-.34-10.026-.112-2.946.282-5.608 1.19-7.986.792-1.926 2.096-3.74 3.91-5.438 1.81-1.7 4.644-2.604 8.494-2.718 3.738-.112 7.732-.226 11.98-.34 4.248-.112 8.182-.282 11.81-.51l11.61-.678.662 19.71-24.166-.85c-1.928.226-3.57.738-4.928 1.528-1.248.68-2.38 1.7-3.398 3.06-1.02 1.358-1.53 3.228-1.53 5.606-.114 2.378-.17 4.702-.17 6.968s-.058 4.304-.17 6.116c-.114 2.038-.17 3.966-.17 5.778-.114 1.472.056 2.832.51 4.076.452 1.022 1.19 1.986 2.208 2.89 1.02.906 2.55 1.474 4.588 1.7 2.38.228 4.674.368 6.882.424 2.21.058 4.106.086 5.694.086 1.924 0 3.736-.056 5.436-.172 2.15-.11 4.134.398 5.946 1.53 1.586.91 3 2.494 4.248 4.758 1.246 2.268 1.87 5.722 1.87 10.366 0 4.646-.03 8.978-.086 13-.058 4.02-.144 7.562-.254 10.62-.114 3.626-.17 6.91-.17 9.854-.228 2.268-.964 4.306-2.208 6.116-1.022 1.588-2.524 3.004-4.504 4.25-1.982 1.246-4.786 1.928-8.41 2.038l-37.552.68z"/><path clip-path="url(#b)" d="M221.648 357.409c-.228-19.144.556-38.6 1.066-58.368s1.046-40.016 1.616-60.746h15.292l-3.978 103.82h40.808c.11.91.226 1.984.338 3.23.114 1.248.198 2.576.256 3.992.056 1.418.086 2.834.086 4.248v3.824h-55.484z"/><path clip-path="url(#b)" d="M153.228 171.939l-7.092-.352.92-38.386 8.438 1.142c1.448.408 2.732 1.138 3.85 2.192.948.876 1.814 2.094 2.594 3.642.782 1.55 1.146 3.552 1.092 6.01 0 1.23-.044 2.808-.128 4.738-.052 1.266-1.518 13.71-1.632 15.924-.334.994-.836 1.872-1.506 2.632-.616.644-1.454 1.228-2.516 1.756-1.06.524-2.398.758-4.02.702m16.528 39.642c-1.274-3.022-2.548-6.04-3.824-9.064-1.274-3.02-2.526-5.994-3.752-8.92-1.226-2.924-2.36-5.664-3.398-8.212 1.792-.944 3.49-2.056 5.098-3.328 1.602-1.274 3.02-2.69 4.248-4.248 1.226-1.558 2.216-3.258 2.972-5.1.754-1.838 1.134-3.798 1.134-5.874v-30.162c0-2.074-.566-3.966-1.7-5.664-1.132-1.698-2.548-3.114-4.25-4.248-1.696-1.134-3.516-2.004-5.45-2.618-1.936-.614-3.752-.922-5.45-.922h-5.876c-2.316 0-4.652.024-7.01.072-2.362.046-4.626.094-6.798.142-2.172.046-3.96.118-5.376.212-.19 3.212-.236 7.412-.14 12.6.092 5.194.258 10.884.496 17.064.232 6.184.516 12.628.848 19.33.328 6.702.634 13.166.918 19.396.282 6.232.54 11.992.778 17.278.234 5.286.354 9.584.354 12.886h11.752v-35.26l19.934 43.456c.47-.19 1.226-.45 2.264-.778 1.04-.332 2.126-.662 3.258-.992 1.132-.33 2.17-.684 3.116-1.064.94-.376 1.604-.752 1.982-1.13-1.134-2.738-4.854-11.832-6.128-14.852"/><path clip-path="url(#b)" d="M196.373 171.267l.278-38.066 7.796 1.142c1.452.408 2.736 1.138 3.85 2.192.95.876 1.814 2.094 2.598 3.642.782 1.55 1.144 3.552 1.09 6.01 0 1.23-.044 2.808-.126 4.738-.056 1.266.086 13.388-.028 15.602-.334.996-.836 2.194-1.506 2.954-.616.644-1.454.908-2.514 1.434-1.062.526-2.398.758-4.018.704l-7.42-.352zm22.292 40.314c-1.276-3.022-2.55-6.04-3.824-9.064-1.274-3.02-2.526-5.994-3.752-8.92-1.228-2.924-2.362-5.664-3.398-8.212 1.792-.944 3.49-2.056 5.096-3.328 1.604-1.274 3.02-2.69 4.25-4.248 1.224-1.558 2.216-3.258 2.972-5.1.754-1.838 1.134-3.798 1.134-5.874v-30.162c0-2.074-.568-3.966-1.7-5.664-1.132-1.698-2.548-4.078-4.248-5.212-1.7-1.134-3.518-2.006-5.452-2.618-1.936-.614-3.752-.922-5.452-.922h-4.592c-2.314 0-4.652.024-7.008.07-2.362.048-4.628.096-6.798.144-2.174.046-3.964.118-5.382.212-.19 3.212-.236 8.376-.142 13.564.094 5.194.26 10.884.498 17.064.232 6.184.518 12.628.85 19.33.328 6.702.636 13.166.92 19.396.282 6.232.542 11.992.778 17.278.234 5.286.354 9.584.354 12.886h11.752v-35.26l17.894 41.204c.47-.19 1.226-.448 2.266-.776 1.036-.332 2.124-.662 3.256-.994 1.134-.328 2.17-.682 3.116-1.06.942-.378 1.602-.754 1.982-1.132-1.132-2.738-4.096-9.582-5.37-12.602"/><path clip-path="url(#b)" d="M178.255 340.441c-5.412 0-8.948-8.688-8.948-19.362l-2.312-36.334c0-10.676 1.93-25.93 12.604-25.93 13.034 0 12.636 5.158 15.704 14.548l2.312 47.716c0 10.674-2.254 19.362-19.36 19.362m34.72-67.078c0-20.42-.54-37.032-32.792-37.032-26.454 0-30.86 10.444-30.86 37.032l2.312 53.886c4.002 25.704-2.148 30.862 26.62 30.862 20.422 0 36.522-3.792 36.522-48.918l-1.802-35.83z"/><path clip-path="url(#b)" d="M133.541 89.776l.012.004-.03-.006.018.002z"/><path clip-path="url(#b)" d="M178.519 56.271l-.578.012-.288.004h-.008l-.032.006-.18.02-.728.094c-.234.032-.51.056-.682.106l-.582.128-.29.06-.134.026-.082.026-2.794.84-2.482.966-2.572 1.17-1.154.586c-.608.342-1.224.686-1.816 1.04l-5.014 2.958-1.072.63-.622.424-2.388 1.638c-.788.548-1.552 1.118-2.326 1.676l-2.322 1.682-.292.214-.336.234-.6.402-1.2.808-2.402 1.62-.3.202-.074.052-.174.108-.152.094-.62.376-1.242.75-2.478 1.504-1.78 1.082-1.254-1.618-.506-.656-.254-.328-.174-.232-.118-.17-.098-.132-.728-.754-1.358-1.484c-.488-.58-.846-.984-1.33-1.582l-1.198-1.572-.598-.788-.3-.392-.318-.454-1.124-1.622-.564-.812-.562-.846-1.086-1.646-.548-.846-.528-.834c-.706-1.114-1.408-2.216-2.094-3.338l-1.05-1.684-1.056-1.646-2.134-3.32-1.856-2.894 3.552.552 2.276.356c.208.014.356.022.61-.024.234-.042.494-.112.764-.22.298-.108.45-.182.844-.384l.836-.514c.292-.19.564-.33.876-.552l.92-.668.462-.336.442-.33.906-.688 1.816-1.376.228-.17.27-.19.48-.334c.322-.224.68-.446 1.014-.67.35-.22.734-.428 1.102-.644.384-.198.794-.384 1.194-.576l1.472-.7.952 1.46.124.186.918 1.404-1.486 1.146-1.312 1.016c-.222.174-.47.42-.7.624l-.708.644-.17.154.014-.014-.002.002-.004.006-.022.02-.044.042-.084.084-.344.33-.688.664-1.376 1.328-.344.332-.392.356c-.246.222-.48.44-.746.664-.27.226-.494.44-.802.676-.292.224-.608.478-.884.674l-.794.544-.126.08-.068.038-.134.078-.274.152-.066.036.06.09.45.694.9 1.386.22.348.146.232.106.178.422.708.84 1.418.422.71.42.73 1.64 2.83 1.67 2.804.852 1.38.854 1.344 1.83 2.752.058.086.008.008.002.01.122.166.244.334.198.27.686-.424 1.232-.76.616-.384.154-.096.012-.008.046-.03.298-.206 2.386-1.636 1.19-.822.596-.408.26-.18.296-.212 2.364-1.71c.79-.568 1.572-1.152 2.368-1.702l2.39-1.632 1.194-.816.598-.408.298-.204.144-.094.076-.048.154-.092 1.242-.75.62-.376.308-.188.172-.102.08-.042.158-.088 2.596-1.424c.91-.458 1.822-.934 2.726-1.374l2.726-1.234 2.954-1.128 2.8-.83.088-.024.046-.014.118-.032.028-.006.21-.042.426-.086.852-.166c.3-.064.512-.076.764-.108l.728-.086.18-.022.092-.01.174-.016.056-.002.444-.006h.1l.006-.146.01-.294v-.034l-.004-.152-.008-.306-.002-.076v-.057999999999999996l.002.08-.006-.152-.05-1.222-.026-.61-.048-.598c-.034-.384-.054-.77-.104-1.148-.104-.756-.178-1.538-.334-2.25l-.202-1.092c-.078-.376-.196-.786-.294-1.176l-.306-1.184-.016-.072v-.012l-.008-.016-.046-.136-.088-.274-.178-.548c-.428-1.47-1.062-2.902-1.674-4.3l-1.028-2.016c-.148-.332-.386-.686-.602-1.034l-.65-1.044-.652-1.048-.082-.13-.04-.054-.17-.236-.342-.474c-.438-.644-.942-1.242-1.426-1.856-1.004-1.198-2.06-2.362-3.216-3.434l-.864-.808-.9-.766c-.596-.532-1.216-.972-1.824-1.448-.292-.234-.648-.472-.988-.708l-1.03-.71-.064-.042-.018-.012-.122-.074-.254-.154-.508-.308c-.34-.204-.678-.42-1.02-.614-.71-.368-1.398-.77-2.116-1.114-.724-.324-1.43-.704-2.178-.99-1.47-.614-2.972-1.16-4.512-1.588-.768-.204-1.542-.446-2.296-.584-.766-.16-1.496-.344-2.36-.448l-1.248-.182-.314-.046-.244-.022-.628-.054-1.262-.11-.282-.022h-.028l-.156-.006-.63-.018-.632-.018-.316-.008-.134-.004h-.01l-.078.002-1.268.024-.316.006-.158.002h-.026l-.08.006-.628.038-.574.036-.63.062-1.252.128-.604.062-.036.006-.146.024-.292.05c-.782.15-1.534.228-2.35.42-.812.2-1.65.382-2.438.598l-2.296.698c-.846.328-1.71.654-2.534.988-.828.39-1.67.754-2.488 1.162-.796.452-1.612.868-2.394 1.344-.762.504-1.55.97-2.294 1.504-.726.556-1.486 1.072-2.186 1.66-.682.604-1.404 1.172-2.058 1.808-.636.648-1.322 1.27-1.922 1.938-.584.688-1.19 1.314-1.762 2.05l-.854 1.13-.426.564-.21.284-.162.25c-.492.768-1.016 1.51-1.476 2.294-.434.796-.898 1.586-1.306 2.39-.366.816-.76 1.61-1.12 2.446l-.968 2.6-.768 2.566-.598 2.734-.17 1.168.092-.002.498-.012.686-.088c.41-.09.876-.254 1.324-.396l.344-.112.086-.028.028-.008.022-.008.16-.066.652-.256c.87-.356 1.738-.66 2.61-1.092l1.306-.606.326-.156.136-.058.16-.082.644-.326 1.284-.652.626-.32.632-.34 1.272-.68.618-.334.63-.35 5.026-2.814 2.522-1.392c.834-.468 1.682-.92 2.512-1.402l2.37-1.352 1.672-1.186.322-.228.296-.2.596-.398 1.19-.794 2.388-1.586.294-.198.15-.094.078-.044.154-.092.616-.366 1.24-.728 2.468-1.46.566-.334.152-.104.48-.322.03.032.116-.066.612.808 1.026 1.05c.486.502.904.978 1.362 1.468l1.316 1.508c.452.562.822 1.014 1.27 1.586l1.162 1.596.586.798.29.4.294.434 1.094 1.644.546.822c.202.298.358.562.54.844l1.054 1.668.532.844.51.844c.682 1.124 1.362 2.244 2.026 3.376l1.016 1.696 1.038 1.664 2.088 3.348.872 1.398-1.68-.284-2.272-.384c-.292-.036-.57-.048-.888.006-.31.046-.632.13-.948.248-.334.114-.59.234-.956.42-.288.16-.608.368-.912.55-.308.194-.618.354-.926.576l-.926.662c-.318.224-.61.434-.912.668l-.912.686-1.812 1.374-.226.172-.254.174-.474.33c-.314.222-.654.432-.984.65-.336.214-.696.406-1.042.61-.364.19-.744.362-1.114.542l-.756.364-.498-.754-.12-.186-.478-.728.77-.594 1.412-1.088c.236-.184.472-.424.706-.632l.702-.65.178-.162.152-.148.338-.334.686-.666 1.368-1.336.344-.336.368-.344c.244-.22.474-.438.732-.654.256-.218.482-.438.768-.656.274-.212.558-.446.826-.64l.792-.546.09-.062.064-.036.124-.07.244-.14.498-.276.244-.134.136-.06-.078-.112-.12-.168-.14-.208-.224-.344-.458-.69-.908-1.378-.226-.348-.134-.206-.108-.176-.432-.706-.856-1.408-.428-.706-.428-.72-1.674-2.822-.858-1.408-.848-1.384-.878-1.38-.878-1.348-1.86-2.732-.95-1.282-.028-.04-1.14.722-1.212.768-.606.384-.15.096-.058.036-.004.002-.014.012-.296.206-2.348 1.636-1.176.814-.588.408-.294.204-.258.19-4.642 3.414-2.348 1.634-1.174.818-.588.408-.294.204-.148.102-.074.05-.13.086-2.45 1.49-2.586 1.436-2.698 1.386c-.882.424-1.746.806-2.624 1.21l-.162.074-.082.038-.1.044-.044.018-.36.14-.72.28-1.444.552c-.488.204-.936.31-1.398.456l-1.386.412-.346.102-.172.05-.044.012-.104.028-.026.006-.102.022-.82.162-.816.158-.722.082-.714.084-.206.02-.11.004-.21.004-.086.002-.014.252-.032.52-.002.034.002.116.002.244.018.982c-.02 1.28.144 2.7.256 4.08l.01.122.008.046.04.238.078.486.156.968.158.968.236 1.018.236 1.018.118.508.03.126.016.064.004.026.07.21.602 1.906c.176.644.476 1.246.712 1.872.252.614.482 1.254.79 1.824l.866 1.762c.338.6.712 1.206 1.064 1.808l.268.452.136.226.03.056.004.004.072.102.58.83c.39.548.738 1.132 1.17 1.652l1.27 1.584c.424.53.896.982 1.344 1.48l.678.732c.246.242.514.478.776.718l.778.72.392.358.196.18.164.132 1.606 1.276c.258.218.54.418.826.606l.852.58.488.33.61.4.022.01c.808.462 1.6.948 2.42 1.39l1.89.916.244.118.118.06.02.006.062.026.496.204.992.406.992.406.892.302c.662.214 1.372.448 2.04.612l1.996.512c.692.146 1.408.266 2.11.4l.53.098.132.024.014.002.024.002.266.032 1.074.118 1.07.122c.304.034.704.056 1.05.082.668.05 1.422.062 2.13.072.666.016 1.396.004 2.128-.01 1.028-.086 2.08-.118 3.088-.258 1.03-.132 2.066-.254 3.084-.478 1.028-.174 2.032-.442 3.044-.706.508-.118 1-.29 1.496-.446.496-.166 1-.306 1.486-.488.97-.382 1.958-.72 2.898-1.168.47-.22.962-.412 1.422-.652l1.378-.718c.462-.226.91-.516 1.366-.776l.678-.4.324-.196.324-.216 1.296-.868c.426-.296.836-.614 1.256-.922.422-.302.83-.626 1.224-.962.394-.332.81-.648 1.19-1l1.144-1.046c.38-.356.736-.728 1.106-1.094.37-.362.714-.746 1.056-1.132.344-.386.692-.768 1.008-1.174.318-.406.652-.79.96-1.212l.914-1.25 1.652-2.604c.53-.88.968-1.81 1.456-2.714.254-.446.428-.928.632-1.394l.598-1.41c.38-.95.668-1.944 1.004-2.914v.004l.474-1.846c.168-.614.258-1.246.386-1.866.138-.624.194-1.256.286-1.886l.006-.038h-.008c-.358-.02-.694-.092-1.066-.102"/><path d="M138.938 30.057h0z"/><defs><rect id="c" width="278.022" height="358.112"/></defs><clipPath id="d"><use xlink:href="#c" overflow="visible"/></clipPath><path clip-path="url(#d)" d="M182.423 51.845l-.1 2.54-.084 2.144-1.916-.114c-.066.602-.144 1.2-.228 1.802l-.304 1.822-.378 1.796c-.128.63-.28 1.182-.436 1.81l-.526 1.768-.272.878-.312.894c-.184.586-.426 1.15-.664 1.736l-.712 1.748c-.248.574-.55 1.104-.824 1.658l-.828 1.648-.962 1.66-1.026 1.592c-.354.524-.732 1.034-1.098 1.552-.76 1.012-1.55 2.016-2.41 2.966-.412.49-.858.948-1.314 1.406l-.674.688c-.234.224-.48.444-.724.666-.484.43-.98.924-1.46 1.294l-.722.594-.364.296-.178.15-.09.07-.024.022-.068.046-.048.036-1.602 1.13c-.53.382-1.104.698-1.658 1.052l-.84.512-.874.466c-.582.298-1.144.646-1.754.9l-1.808.808c-.612.252-1.238.47-1.86.7-.618.242-1.252.432-1.89.616-.644.176-1.258.398-1.932.534l-2.006.44c-.674.146-1.26.204-1.896.31l-.934.144c-.39.056-.672.066-1.016.1l-1.966.168h-.01l-.16.006c-2.148.074-4.39.048-6.588-.242l-1.576-.196-.196-.024-.098-.014-.222-.032-.052-.01-.422-.08-.838-.168-1.674-.34-1.528-.416-.764-.21-.382-.104-.42-.134c-.55-.182-1.148-.368-1.616-.546l-.74-.272-.096-.034-.292-.118-.178-.078-.36-.156-1.448-.636c-.25-.114-.464-.192-.742-.34l-.738-.386-1.474-.77c-.968-.534-1.892-1.142-2.836-1.712-3.694-2.426-6.956-5.374-9.758-8.732l-1.048-1.298-.506-.648-.44-.638-.886-1.274-.222-.32-.056-.08-.062-.096-.026-.042-.104-.174-.416-.696c-.554-.926-1.116-1.848-1.57-2.824l-.72-1.44c-.234-.482-.418-.988-.632-1.478-1.64-3.972-2.658-8.108-3.016-12.388-.04-.53-.124-1.086-.118-1.592l-.026-1.536-.012-.766-.006-.446.022-.398.094-1.592c.02-.632.086-1.234.158-1.83h1.672c.014-6.478 4.648-19.232 12.118-27.168.414-.386.822-.778 1.242-1.156.826-.67 1.626-1.372 2.47-2.018l1.786-1.262c.796-.502 1.174-.75.844-.574l1.376-.862.694-.432c.228-.14.46-.254.694-.38 3.714-2.066 7.844-3.678 12.126-4.576 2.138-.486 4.33-.728 6.538-.864 1.102-.048 2.256-.048 3.37-.038l1.584.11.79.054.25.018.204.024.414.054c4.41.486 8.736 1.72 12.71 3.626.984.5 1.974.966 2.934 1.574.472.288.99.574 1.424.868l1.292.892.324.226.08.054.088.062.04.032.162.126.644.504c.422.344.87.66 1.266 1.03.816.724 1.636 1.438 2.376 2.224 1.518 1.544 2.914 3.186 4.142 4.936.312.428.618.87.904 1.33.282.452.604.908.85 1.354l.29.498.262.36.194.262.048.064.09.134.084.13.662 1.04.664 1.04c.222.346.45.676.654 1.084l1.236 2.35c.726 1.584 1.432 3.15 1.942 4.81l.208.614.104.306.05.158.054.194.32 1.182c.102.4.216.774.312 1.196l.266 1.308c.196.88.286 1.722.416 2.582.058.424.086.852.132 1.278l.052.618.034.61.066 1.22.032.708.006.152.002.078v.204l-.006.304zm6.708-9.89c-.168-2.762-.532-4.16-.698-4.84-.184-.684-.308-.668-.424-.654l.464-.06c-.756-2.758-1.798-6.952-3.844-11.084-.46-1.038-1.094-2.054-1.684-3.046-.548-1-1.314-1.934-1.958-2.836l-.504-.666c-.176-.212-.368-.418-.552-.622l-1.078-1.176c-.67-.768-1.444-1.396-2.108-1.962l.34-.276c-1.294-1.172-2.856-2.156-4.338-3.18l-3.942-2.32c-1.382-.724-2.716-1.484-4.13-2.182l-2.15-1.024-1.076-.508-1.128-.466-2.254-.928c-.762-.296-1.562-.554-2.348-.828-1.548-.574-3.224-.99-4.868-1.44-3.372-.776-6.882-1.362-10.528-1.428l.02-.402c-3.684-.122-7.428.186-10.18.686-2.004.366-3.492.712-4.164.844l-2.674.286c-.282.094-.57.19-.852.298l-1.6.614c-.546.21-1.098.434-1.626.698-1.064.514-2.184 1.02-3.176 1.62l-1.508.87c-.488.288-.936.606-1.384.9-3.6 2.38-5.908 4.626-6.114 4.47l.348.276c-2.382 2.176-4.4 4.424-6.178 6.672-1.732 2.26-3.23 4.522-4.52 6.77-2.564 4.5-4.346 8.93-5.664 13.266-1.284 4.346-2.064 8.612-2.41 12.852-.202 2.478-.246 4.952-.118 7.43-.786 2.024-1.29 4.46-1.116 7.116.194 3.432 1.526 7.072 3.634 10.354 1.842 2.896 4.238 5.542 6.864 7.892 1.722 2.006 3.76 3.924 6.146 5.626 3.346 2.406 7.372 4.326 11.608 5.514l.272.07c.676.29 1.34.564 1.982.818 2.826 1.148 4.29 1.666 4.798 1.962.506.284.08.3-.72.198-1.608-.184-4.694-.948-4.828-.684 2.968 1.036 5.622 1.834 8.12 2.52 2.504.682 4.864 1.234 7.284 1.684 2.424.446 4.912.79 7.702.964 2.794.146 5.9.148 9.608-.414.002.012.18-.004.518-.044.34-.05.828-.096 1.476-.22l1.106-.212 1.678-.398c.32-.06.582-.186.862-.3l.876-.364 1.498-.63.778-.34.766-.394 1.614-.85c.572-.288 1.1-.626 1.648-.976.544-.354 1.104-.71 1.684-1.082.574-.374 1.088-.794 1.654-1.208.542-.424 1.142-.836 1.668-1.3 1.042-.922 2.2-1.856 3.186-2.896.512-.51 1.038-1.03 1.548-1.56l1.448-1.64.73-.832.674-.86 1.35-1.734c1.686-2.356 3.282-4.782 4.578-7.224 2.664-4.868 4.49-9.69 5.62-13.616 0 0 .362-1.314 1.06-4.63l.524-2.882c.138-1.104.354-2.334.486-3.726.29-2.782.476-6.186.224-10.326"/></svg>