<svg xmlns="http://www.w3.org/2000/svg" width="153.07" height="102.047" viewBox="0 0 153.071 102.047" enable-background="new 0 0 153.071 102.047"><rect fill="#222" width="153.07" height="102.047"/><path fill="#fff" d="M59.615 23.566c1.634.129 2.438.213 4.039.405.52.065 1.014-.162 1.102-.513.28-1.075.422-1.617.694-2.703.09-.354.353-.32.575.076.704 1.212 1.049 1.824 1.718 3.053.222.401.817.785 1.319.887 1.497.305 2.043.441 3.854.925.499.134.58.361.217.488-1.114.386-1.689.491-2.838.96-.37.147-.504.604-.3 1.01.62 1.236.912 1.897 1.484 3.221.19.434.01.482-.399.118-1.257-1.106-1.911-1.52-3.232-2.446-.439-.307-1.099-.418-1.474-.26-1.126.49-1.688.834-2.833 1.348-.375.171-.6.025-.505-.315.295-1.05.442-1.666.73-2.714.092-.342-.205-.853-.662-1.123-1.417-.844-2.136-1.25-3.589-2.03-.472-.256-.43-.427.1-.387"/><path fill="#fff" d="M43.693 35.216c1.948-.407 2.549-.503 4.392-.767.551-.078 1.111-.408 1.243-.771l.983-2.785c.128-.357.398-.374.6-.043.636 1.042.948 1.567 1.562 2.63.201.345.799.647 1.319.616 1.732-.104 2.133-.205 3.892-.291.507-.025.571.173.211.406-1.349.875-1.76 1.233-2.956 1.953-.382.23-.573.662-.379 1.024.583 1.084.87 1.635 1.43 2.757.187.369-.015.471-.447.228-1.309-.74-1.975-1.082-3.341-1.702-.452-.211-1.161-.178-1.577.071-1.263.755-1.686 1.026-3.383 2.09-.471.294-.702.248-.526-.205.549-1.409.739-1.749 1.191-2.875.147-.366-.138-.803-.614-.949-1.474-.452-2.224-.644-3.759-.957-.494-.099-.426-.297.159-.43"/><path fill="#fff" d="M35.277 49.989c1.78-.146 2.636-.179 4.292-.184.539-.002 1.191-.294 1.459-.662l2.064-2.802c.264-.357.519-.344.572.032.152 1.161.227 1.749.351 2.932.041.381.482.727.963.794 1.676.233 1.944.278 3.635.592.456.085.467.289.03.438-1.352.449-2.043.701-3.463 1.246-.458.178-.872.65-.864 1.04.008 1.197.008 1.801-.007 3.021-.009.402-.248.494-.541.208-.894-.86-1.354-1.281-2.316-2.085-.317-.26-.995-.294-1.503-.077-1.55.672-2.338 1.032-3.931 1.777-.525.245-.708.138-.394-.252l2.333-2.92c.309-.379.264-.877-.093-1.097-1.116-.683-1.693-.998-2.917-1.576-.395-.184-.241-.378.33-.425"/><path fill="#fff" d="M63.851 69.684c-1.169.667-1.809 1.104-3.051 1.977-.403.283-.652.894-.549 1.352.312 1.4.461 2.115.757 3.609.097.489-.113.648-.464.351-1.067-.915-1.602-1.351-2.673-2.193-.354-.279-.983-.245-1.398.078-1.264.974-1.899 1.478-3.183 2.51-.424.345-.6.202-.402-.301.607-1.532.905-2.275 1.491-3.729.195-.477.056-1.065-.31-1.311-1.116-.749-1.682-1.108-2.819-1.789-.371-.22-.273-.448.21-.513 1.503-.19 2.246-.265 3.72-.383.479-.04 1.02-.433 1.198-.874.564-1.379.842-2.052 1.379-3.346.175-.424.41-.427.522-.02.344 1.26.513 1.901.85 3.221.107.428.581.77 1.045.763 1.44-.031 2.16-.062 3.559.103.454.046.496.281.118.495"/><path fill="#fff" d="M83.057 71.851c-1.026.337-1.54.52-2.58.894-.341.121-.498.563-.348.981.455 1.266.689 1.898 1.168 3.168.16.417-.015.493-.389.162-1.126-.997-1.68-1.506-2.771-2.535-.364-.339-.937-.503-1.286-.354-1.057.445-1.593.68-2.682 1.189-.361.169-.543-.008-.409-.39l1.022-2.794c.132-.36-.05-.929-.399-1.271-1.067-1.062-1.595-1.597-2.645-2.659-.337-.346-.27-.521.152-.388 1.306.412 1.959.619 3.26 1.04.419.138.863-.028.987-.359l.935-2.519c.117-.314.322-.242.456.166.416 1.255.628 1.886 1.057 3.157.139.41.598.862 1.021.997 1.311.431 1.961.643 3.275 1.068.426.139.505.336.176.447"/><path fill="#fff" d="M100.293 66.757c-1.149.439-1.684.669-2.796 1.103-.358.139-.497.579-.3.983.588 1.221.891 1.831 1.517 3.034.202.391.02.478-.41.172-1.305-.926-1.944-1.39-3.182-2.504-.408-.366-1.021-.582-1.373-.469-1.06.337-1.589.502-2.643.848-.35.113-.55-.076-.45-.419.319-1.041.478-1.554.794-2.57.111-.339-.128-.91-.51-1.285-1.193-1.16-1.781-1.757-2.933-2.928-.374-.385-.319-.545.126-.366 1.369.563 2.051.838 3.438 1.367.449.175.91.047 1.016-.276.332-1.018.504-1.521.85-2.529.111-.328.332-.24.498.183.508 1.32.771 1.982 1.309 3.3.178.428.693.9 1.163 1.06 1.434.482 2.183.565 3.677.87.482.09.574.282.209.426"/><path fill="#fff" d="M111.537 55.311c-1.096.763-1.635 1.116-2.699 1.765-.338.21-.492.642-.338.959.478.968.721 1.443 1.21 2.378.167.312-.009.398-.38.197-1.123-.603-1.674-.932-2.758-1.633-.359-.232-.912-.303-1.238-.156-.985.448-1.469.657-2.427 1.067-.317.136-.49.004-.387-.289.306-.893.464-1.338.785-2.24.104-.296-.086-.754-.433-1.019-1.047-.827-1.557-1.314-2.572-2.203-.33-.288-.277-.437.123-.346 1.225.303 1.844.437 3.107.652.414.067.842-.155.954-.493.353-1.05.533-1.581.898-2.676.122-.349.329-.331.464.04.422 1.158.648 1.733 1.084 2.88.141.37.608.703 1.037.722 1.333.061 2.008.065 3.396-.011.449-.022.524.155.174.406"/><path fill="#fff" d="M120.664 37.964c-1.053 1.102-1.582 1.644-2.633 2.692-.339.334-.521.859-.408 1.166.355.923.536 1.378.916 2.264.121.287-.049.464-.385.381-1.022-.247-1.52-.396-2.49-.748-.316-.116-.849.041-1.178.348-1.008.928-1.537 1.382-2.471 2.205-.303.269-.459.188-.35-.166.336-1.092.602-1.681 1.01-2.831.138-.381-.002-.809-.307-.954-.934-.459-1.389-.713-2.291-1.242-.291-.171-.225-.356.149-.415 1.164-.188 1.751-.303 2.948-.587.387-.096.82-.503.961-.896l1.083-3.11c.138-.412.337-.473.436-.134.304 1.048.464 1.559.786 2.563.105.322.525.477.927.34 1.249-.434 1.884-.672 3.161-1.208.418-.167.48-.021.136.332"/><path fill="#fff" d="M100.818 26.535c1.08.093 1.498.066 2.763.024.368-.013.749-.329.85-.716.313-1.194.475-1.812.799-3.092.105-.412.292-.436.412-.054.373 1.188.56 1.755.938 2.873.121.358.519.583.894.583 1.008 0 1.648-.032 2.912-.096.38-.019.465.131.138.389-.929.73-1.408.981-2.317 1.707-.311.248-.431.762-.307 1.1.379 1.02.57 1.52.958 2.498.128.323-.017.446-.324.283-.931-.501-1.394-.761-2.317-1.31-.304-.18-.787-.128-1.072.107-.861.721-1.287 1.067-2.131 1.718-.274.21-.426.087-.336-.238.273-.978.412-1.497.703-2.568.096-.351-.083-.788-.376-.998-.944-.677-1.388-1.059-2.294-1.817-.297-.248-.248-.424.107-.393"/><path fill="#fff" d="M80.803 22.676c1.272.364 1.902.547 3.158.915.414.116.836-.052.943-.372.344-1.006.515-1.521.871-2.584.113-.338.328-.293.467.113.432 1.259.639 1.889 1.053 3.136.131.403.569.827.975.946 1.263.366 1.886.542 3.145.898.408.117.469.322.134.463-1.027.424-1.526.622-2.525.996-.323.121-.481.54-.358.937l.938 2.978c.121.386-.04.443-.356.116-.955-.979-1.44-1.473-2.419-2.452-.32-.321-.845-.495-1.155-.389-.948.321-1.414.474-2.346.761-.303.099-.473-.063-.369-.356.312-.887.475-1.335.793-2.257.105-.303-.081-.812-.414-1.125-1.039-.97-1.57-1.449-2.643-2.383-.351-.309-.301-.456.108-.341"/><path fill="#fff" d="M130.557 21.923c-.924.842-1.409 1.277-2.399 2.185-.323.295-.502.747-.392.994.34.754.516 1.117.891 1.813.125.226-.043.387-.373.348-.994-.111-1.481-.193-2.441-.384-.316-.063-.848.136-1.189.449-1.032.947-1.555 1.428-2.609 2.383-.346.309-.506.272-.355-.09.463-1.095.695-1.647 1.148-2.743.153-.358.027-.729-.276-.826-.934-.285-1.388-.451-2.294-.811-.291-.117-.213-.305.182-.419 1.203-.342 1.807-.525 3.012-.899.391-.122.827-.521.979-.882.455-1.128.688-1.688 1.135-2.815.15-.363.334-.411.418-.11.255.915.392 1.357.684 2.213.095.276.482.392.865.272 1.18-.391 1.762-.582 2.895-.948.363-.12.418.002.119.27"/><path fill="#fff" d="M89.733 41.942c.675-.181.771-.524-.027-.482-1.368.068-17.307 3.737-31.122 11.796-15.032 8.769-19.576 13.138-22.786 15.626-.85.658-1.478.669-1.628.267-.513-1.367-.834-2.146-1.252-3.428-.127-.391-.497-.347-.662.198-.563 1.856-.832 2.989-1.38 4.664-.174.537-.358 1.126-1.355 1.82-1.973 1.373-2.383 1.641-3.613 2.479-.447.304-.678.638.213.799l2.183.4c.923.17.619.795.487 1.339-.375 1.554-.536 2.179-1.036 3.776-.169.524.047.592.475.146 1.313-1.372 1.74-1.834 3.125-3.278.523-.545 1.012-1.169 1.56-1.07 1.355.244 1.518.285 3.417.645.842.159.837-.229.613-.782-.65-1.61-.53-1.398-1.023-2.761-.158-.436-.186-1.249.307-1.729 7.92-7.706 11.198-10.223 22.084-17.322 8.526-5.563 19.859-9.981 31.42-13.103z"/></svg>